<svg xmlns="http://www.w3.org/2000/svg" xmlns:xlink="http://www.w3.org/1999/xlink" width="170px" height="30px" viewBox="0 0 170 30" version="1.1">
    <!-- Generator: Sketch 58 (84663) - https://sketch.com -->
    <title>logo</title>
    <desc>Created with Sketch.</desc>
    <defs>
        <polygon id="path-1" points="0.000127659574 0.211466667 19.705234 0.211466667 19.705234 25.9999567 0.000127659574 25.9999567"/>
        <polygon id="path-3" points="16 25.5 154 25.5 154 0.5 16 0.5"/>
    </defs>
    <g id="Page-1" stroke="none" stroke-width="1" fill="none" fill-rule="evenodd">
        <g id="Page2-(form)" transform="translate(0.000000, -79.000000)">
            <g id="logoBar" transform="translate(0.000000, 81.000000)">
                <g id="Group-17" fill-rule="evenodd">
                    <g id="Group-3" transform="translate(0.000000, 0.500000)">
                        <mask id="mask-2" fill="white">
                            <use xlink:href="#path-1"/>
                        </mask>
                        <g id="Clip-2"/>
                        <path d="M4.23289362,17.20849 C4.23289362,21.0014567 6.97502128,22.4834567 10.3605532,22.4834567 C14.085234,22.4834567 15.4728936,20.6227233 15.4728936,18.7602567 C15.4728936,16.86399 14.4571489,16.10479 13.4754468,15.72649 C11.7831064,15.0708567 9.58225532,14.62279 6.26353191,13.6924233 C2.13374468,12.5536233 0.915021277,10.00259 0.915021277,7.45199 C0.915021277,2.52065667 5.38438298,0.211423333 9.75119149,0.211423333 C14.7958723,0.211423333 19.0282128,2.93492333 19.0282128,8.07209 L14.7958723,8.07209 C14.5924681,4.90052333 12.4937447,3.72749 9.58225532,3.72749 C7.61885106,3.72749 5.14651064,4.45115667 5.14651064,6.93459 C5.14651064,8.65795667 6.298,9.62342333 8.02523404,10.1057233 C8.39714894,10.20929 13.7465106,11.6232567 14.9988511,12.00199 C18.1814043,12.9674567 19.705234,15.72649 19.705234,18.2766567 C19.705234,23.7934233 14.8971489,25.9999567 10.0894894,25.9999567 C4.57119149,25.9999567 0.101829787,23.3115567 0.000127659574,17.20849 L4.23289362,17.20849 Z" id="Fill-1" fill="#1D1D1B" mask="url(#mask-2)"/>
                    </g>
                    <path d="M20,7.76581644 L22.8378827,7.76581644 L22.8378827,2.5 L26.6000166,2.5 L26.6000166,7.76581644 L30,7.76581644 L30,10.654266 L26.6000166,10.654266 L26.6000166,20.0296651 C26.6000166,21.6261046 26.7331785,22.4416165 28.4165768,22.4416165 C28.9438314,22.4416165 29.4727454,22.4416165 30,22.3062672 L30,25.2954815 C29.1757239,25.3629427 28.3829752,25.5 27.5574546,25.5 C23.6306314,25.5 22.9042562,23.9368642 22.8378827,21.014684 L22.8378827,10.654266 L20,10.654266 L20,7.76581644 Z" id="Fill-4" fill="#1D1D1B"/>
                    <path d="M32,7.97421119 L35.5314613,7.97421119 L35.5314613,11.3644164 L35.5978265,11.3644164 C36.026712,9.50037873 38.2711021,7.5 40.5814426,7.5 C41.438384,7.5 41.6702476,7.56689232 42,7.60182972 L42,11.3307572 C41.4719814,11.2625867 40.9099506,11.160757 40.3831764,11.160757 C37.8077896,11.160757 35.7620806,13.2970507 35.7620806,17.1618932 L35.7620806,25.5 L32,25.5 L32,7.97421119 Z" id="Fill-6" fill="#1D1D1B"/>
                    <mask id="mask-4" fill="white">
                        <use xlink:href="#path-3"/>
                    </mask>
                    <g id="Clip-9"/>
                    <path d="M43,5.12978349 L47,5.12978349 L47,1.5 L43,1.5 L43,5.12978349 Z M43,25.5 L47,25.5 L47,8.12207358 L43,8.12207358 L43,25.5 Z" id="Fill-8" fill="#1D1D1B" mask="url(#mask-4)"/>
                    <polygon id="Fill-10" fill="#1D1D1B" mask="url(#mask-4)" points="48 1.5 52.395932 1.5 58.4494232 20.4903712 58.5170006 20.4903712 64.7052216 1.5 69 1.5 60.7483303 25.5 56.0485124 25.5"/>
                    <path d="M68.9047104,17.473663 C68.9047104,20.1491086 70.41192,22.5264985 73.6657018,22.5264985 C75.9263009,22.5264985 77.2970394,21.570063 77.9819781,19.6870806 L81.6809055,19.6870806 C80.825055,23.4190056 77.5368325,25.5 73.6657018,25.5 C68.1173107,25.5 65,21.768075 65,16.5159821 C65,11.6603284 68.287792,7.5 73.5628103,7.5 C79.1465031,7.5 82.5716272,12.3544083 81.9211291,17.473663 L68.9047104,17.473663 Z M78.0164187,14.9966445 C77.8786561,12.6192546 76.2005347,10.4726713 73.5628103,10.4726713 C70.8574961,10.4726713 69.0071713,12.4536219 68.9047104,14.9966445 L78.0164187,14.9966445 Z" id="Fill-11" fill="#1D1D1B" mask="url(#mask-4)"/>
                    <path d="M96.0288967,13.6764218 C95.7154116,11.5950602 94.1133975,10.4726027 91.9185639,10.4726027 C89.8629597,10.4726027 86.9724168,11.4958489 86.9724168,16.6814031 C86.9724168,19.5215857 88.2955342,22.526567 91.7443082,22.526567 C94.043345,22.526567 95.645359,21.0745122 96.0288967,18.6303445 L100,18.6303445 C99.2683888,23.0550021 96.3769702,25.5 91.7443082,25.5 C86.1011384,25.5 83,21.7017435 83,16.6814031 C83,11.5294728 85.9619089,7.5 91.8835377,7.5 C96.0634851,7.5 99.617338,9.48215027 100,13.6764218 L96.0288967,13.6764218 Z" id="Fill-12" fill="#1D1D1B" mask="url(#mask-4)"/>
                    <path d="M100,7.76581644 L102.837647,7.76581644 L102.837647,2.5 L106.600713,2.5 L106.600713,7.76581644 L110,7.76581644 L110,10.654266 L106.600713,10.654266 L106.600713,20.0296651 C106.600713,21.6261046 106.732205,22.4416165 108.415879,22.4416165 C108.943919,22.4416165 109.472374,22.4416165 110,22.3062672 L110,25.2954815 C109.174963,25.3629427 108.383109,25.5 107.557657,25.5 C103.63033,25.5 102.904015,23.9368642 102.837647,21.014684 L102.837647,10.654266 L100,10.654266 L100,7.76581644 Z" id="Fill-13" fill="#1D1D1B" mask="url(#mask-4)"/>
                    <path d="M112,5.12978349 L116,5.12978349 L116,1.5 L112,1.5 L112,5.12978349 Z M112,25.5 L116,25.5 L116,8.12207358 L112,8.12207358 L112,25.5 Z" id="Fill-14" fill="#1D1D1B" mask="url(#mask-4)"/>
                    <path d="M118,7.97421119 L121.568008,7.97421119 L121.568008,10.5510569 L121.634451,10.6183753 C122.757759,8.68659313 124.707455,7.5 126.95324,7.5 C130.65455,7.5 133,9.53446399 133,13.4661988 L133,25.5 L129.233908,25.5 L129.233908,14.4840699 C129.167465,11.7367979 128.10977,10.5510569 125.896791,10.5510569 C123.385233,10.5510569 121.766507,12.5846687 121.766507,15.1610884 L121.766507,25.5 L118,25.5 L118,7.97421119 Z" id="Fill-15" fill="#1D1D1B" mask="url(#mask-4)"/>
                    <path d="M136.004821,11.5 C134.833668,11.5 134,10.6384069 134,9.5 C134,8.29652997 134.926075,7.5 136.004821,7.5 C137.073925,7.5 138,8.29652997 138,9.5 C138,10.7030757 137.073925,11.5 136.004821,11.5 L136.004821,11.5 Z M136.004821,7.8477918 C135.122941,7.8477918 134.435918,8.52602524 134.435918,9.5 C134.435918,10.4085174 135.034954,11.1526025 136.004821,11.1526025 C136.877059,11.1526025 137.564082,10.4783123 137.564082,9.5 C137.564082,8.52602524 136.877059,7.8477918 136.004821,7.8477918 L136.004821,7.8477918 Z M135.601446,10.6439274 L135.231418,10.6439274 L135.231418,8.42981073 L136.086782,8.42981073 C136.631177,8.42981073 136.909602,8.61750789 136.909602,9.06664038 C136.909602,9.46805994 136.658899,9.63367508 136.321816,9.67074132 L136.953395,10.6439274 L136.532744,10.6439274 L135.950583,9.69755521 L135.601446,9.69755521 L135.601446,10.6439274 Z M136.016071,9.3876183 C136.294094,9.3876183 136.538369,9.36080442 136.538369,9.0398265 C136.538369,8.77326498 136.2728,8.7409306 136.048212,8.7409306 L135.601446,8.7409306 L135.601446,9.3876183 L136.016071,9.3876183 Z" id="Fill-16" fill="#1D1D1B" mask="url(#mask-4)"/>
                </g>
                <path d="M6.10622664e-16,0 L375.497347,-0.88372093" id="Line-4" stroke="#FFFFFF" stroke-linecap="square"/>
            </g>
        </g>
    </g>
</svg>